# xmcd CD database file
#
# Track frame offsets:
#	182
#	27375
#	51730
#	73160
#	99770
#	125395
#	145972
#	164257
#	190385
#	212755
#	233460
#
# Disc length: 3363 seconds
#
# Revision: 3
# Processed by: cddbd v1.5.1PL0 Copyright (c) Steve Scherf et al.
# Submitted via: CDex 1.51
#
DISCID=9e0d210b
DTITLE=Various Artist - Espace - Ruhe and Regeneration
DYEAR=1998
DGENRE=New Age
TTITLE0=Entfliehen
TTITLE1=Wohlbefinden
TTITLE2=Musikalische Reise
TTITLE3=Seelenfrieden
TTITLE4=Erholung
TTITLE5=Welt der Harmonie
TTITLE6=Traumreise
TTITLE7=Zaertliche Gedanken
TTITLE8=Inspiration
TTITLE9=Farbenfrohe Phantasie
TTITLE10=Welt der Emotionen
EXTD=YEAR: 1998
EXTT0=
EXTT1=
EXTT2=
EXTT3=
EXTT4=
EXTT5=
EXTT6=
EXTT7=
EXTT8=
EXTT9=
EXTT10=
PLAYORDER=
